<mxfile host="65bd71144e">
    <diagram id="6Jl44c_YMM1nRG58hI8R" name="Page-1">
        <mxGraphModel dx="990" dy="762" grid="1" gridSize="10" guides="1" tooltips="1" connect="1" arrows="1" fold="1" page="1" pageScale="1" pageWidth="850" pageHeight="1100" math="0" shadow="0">
            <root>
                <mxCell id="0"/>
                <mxCell id="1" parent="0"/>
                <mxCell id="64" value="" style="rounded=0;whiteSpace=wrap;html=1;fontSize=15;" vertex="1" parent="1">
                    <mxGeometry x="220" y="420" width="400" height="570" as="geometry"/>
                </mxCell>
                <mxCell id="2" value="" style="rounded=0;whiteSpace=wrap;html=1;align=left;verticalAlign=middle;" vertex="1" parent="1">
                    <mxGeometry x="260" y="517.96" width="360" height="140" as="geometry"/>
                </mxCell>
                <mxCell id="3" value="Standy := True" style="rounded=0;whiteSpace=wrap;html=1;align=left;verticalAlign=middle;" vertex="1" parent="1">
                    <mxGeometry x="260" y="477.96" width="360" height="40" as="geometry"/>
                </mxCell>
                <UserObject label="Zolang Standby" placeholders="1" name="Variable" id="5">
                    <mxCell style="text;html=1;strokeColor=none;fillColor=none;align=left;verticalAlign=middle;whiteSpace=wrap;overflow=hidden;fontSize=15;" vertex="1" parent="1">
                        <mxGeometry x="260" y="517.96" width="130" height="20" as="geometry"/>
                    </mxCell>
                </UserObject>
                <mxCell id="7" value="" style="rounded=0;whiteSpace=wrap;html=1;fontSize=15;verticalAlign=middle;" vertex="1" parent="1">
                    <mxGeometry x="290" y="547.96" width="330" height="110" as="geometry"/>
                </mxCell>
                <mxCell id="8" value="" style="triangle;whiteSpace=wrap;html=1;fontSize=15;rotation=90;verticalAlign=middle;" vertex="1" parent="1">
                    <mxGeometry x="425.49" y="415" width="61.25" height="327.2" as="geometry"/>
                </mxCell>
                <UserObject label="Is er een input gegeven?" placeholders="1" name="Variable" id="9">
                    <mxCell style="text;html=1;strokeColor=none;fillColor=none;align=center;verticalAlign=middle;whiteSpace=wrap;overflow=hidden;fontSize=15;" vertex="1" parent="1">
                        <mxGeometry x="330" y="547.96" width="210" height="30" as="geometry"/>
                    </mxCell>
                </UserObject>
                <UserObject label="Nee" placeholders="1" name="Variable" id="10">
                    <mxCell style="text;html=1;strokeColor=none;fillColor=none;align=center;verticalAlign=middle;whiteSpace=wrap;overflow=hidden;fontSize=15;" vertex="1" parent="1">
                        <mxGeometry x="285" y="577.96" width="80" height="20" as="geometry"/>
                    </mxCell>
                </UserObject>
                <mxCell id="11" value="" style="rounded=0;whiteSpace=wrap;html=1;align=left;fontSize=15;verticalAlign=middle;" vertex="1" parent="1">
                    <mxGeometry x="290" y="607.96" width="170" height="50" as="geometry"/>
                </mxCell>
                <UserObject label="Ja" placeholders="1" name="Variable" id="12">
                    <mxCell style="text;html=1;strokeColor=none;fillColor=none;align=center;verticalAlign=middle;whiteSpace=wrap;overflow=hidden;fontSize=15;" vertex="1" parent="1">
                        <mxGeometry x="500" y="577.96" width="80" height="20" as="geometry"/>
                    </mxCell>
                </UserObject>
                <mxCell id="13" value="Standby := False" style="rounded=0;whiteSpace=wrap;html=1;align=left;fontSize=15;verticalAlign=middle;" vertex="1" parent="1">
                    <mxGeometry x="460" y="607.96" width="160" height="50" as="geometry"/>
                </mxCell>
                <mxCell id="14" value="Input := user_input" style="rounded=0;whiteSpace=wrap;html=1;align=left;fontSize=15;verticalAlign=middle;" vertex="1" parent="1">
                    <mxGeometry x="260" y="657.96" width="360" height="40" as="geometry"/>
                </mxCell>
                <mxCell id="18" value="Selectie := selectieOphalen(Input)" style="rounded=0;whiteSpace=wrap;html=1;align=left;fontSize=15;verticalAlign=middle;" vertex="1" parent="1">
                    <mxGeometry x="260" y="697.96" width="360" height="40" as="geometry"/>
                </mxCell>
                <mxCell id="19" value="" style="rounded=0;whiteSpace=wrap;html=1;fontSize=15;align=left;" vertex="1" parent="1">
                    <mxGeometry x="440" y="138" width="380" height="62" as="geometry"/>
                </mxCell>
                <UserObject label="selectieOphalen(input)" placeholders="1" name="Variable" id="20">
                    <mxCell style="text;html=1;strokeColor=none;fillColor=none;align=left;verticalAlign=middle;whiteSpace=wrap;overflow=hidden;fontSize=15;" vertex="1" parent="1">
                        <mxGeometry x="440" y="117.96" width="250" height="20" as="geometry"/>
                    </mxCell>
                </UserObject>
                <mxCell id="22" value="" style="triangle;whiteSpace=wrap;html=1;fontSize=15;rotation=90;" vertex="1" parent="1">
                    <mxGeometry x="600.19" y="-12.19" width="60" height="362.38" as="geometry"/>
                </mxCell>
                <UserObject label="Bestaat selectie?" placeholders="1" name="Variable" id="23">
                    <mxCell style="text;html=1;strokeColor=none;fillColor=none;align=center;verticalAlign=middle;whiteSpace=wrap;overflow=hidden;fontSize=15;" vertex="1" parent="1">
                        <mxGeometry x="570.19" y="147.96" width="120" height="20" as="geometry"/>
                    </mxCell>
                </UserObject>
                <UserObject label="Nee" placeholders="1" name="Variable" id="24">
                    <mxCell style="text;html=1;strokeColor=none;fillColor=none;align=center;verticalAlign=middle;whiteSpace=wrap;overflow=hidden;fontSize=15;" vertex="1" parent="1">
                        <mxGeometry x="450" y="168" width="80" height="20" as="geometry"/>
                    </mxCell>
                </UserObject>
                <UserObject label="Ja" placeholders="1" name="Variable" id="25">
                    <mxCell style="text;html=1;strokeColor=none;fillColor=none;align=center;verticalAlign=middle;whiteSpace=wrap;overflow=hidden;fontSize=15;" vertex="1" parent="1">
                        <mxGeometry x="720" y="168" width="80" height="20" as="geometry"/>
                    </mxCell>
                </UserObject>
                <mxCell id="26" value="Return Null" style="rounded=0;whiteSpace=wrap;html=1;fontSize=15;" vertex="1" parent="1">
                    <mxGeometry x="440" y="200" width="190" height="100" as="geometry"/>
                </mxCell>
                <mxCell id="27" value="" style="rounded=0;whiteSpace=wrap;html=1;fontSize=15;" vertex="1" parent="1">
                    <mxGeometry x="630" y="200" width="190" height="60" as="geometry"/>
                </mxCell>
                <mxCell id="28" value="" style="triangle;whiteSpace=wrap;html=1;fontSize=15;rotation=90;" vertex="1" parent="1">
                    <mxGeometry x="695" y="137.5" width="60" height="185" as="geometry"/>
                </mxCell>
                <UserObject label="Nee" placeholders="1" name="Variable" id="29">
                    <mxCell style="text;html=1;strokeColor=none;fillColor=none;align=center;verticalAlign=middle;whiteSpace=wrap;overflow=hidden;fontSize=15;" vertex="1" parent="1">
                        <mxGeometry x="620" y="228.6" width="80" height="20" as="geometry"/>
                    </mxCell>
                </UserObject>
                <UserObject label="Ja" placeholders="1" name="Variable" id="30">
                    <mxCell style="text;html=1;strokeColor=none;fillColor=none;align=center;verticalAlign=middle;whiteSpace=wrap;overflow=hidden;fontSize=15;" vertex="1" parent="1">
                        <mxGeometry x="750" y="228.6" width="80" height="20" as="geometry"/>
                    </mxCell>
                </UserObject>
                <UserObject label="Is selectie op voorraad?" placeholders="1" name="Variable" id="32">
                    <mxCell style="text;html=1;strokeColor=none;fillColor=none;align=center;verticalAlign=middle;whiteSpace=wrap;overflow=hidden;fontSize=15;" vertex="1" parent="1">
                        <mxGeometry x="655" y="197.96" width="140" height="43.44" as="geometry"/>
                    </mxCell>
                </UserObject>
                <mxCell id="33" value="Return Null" style="rounded=0;whiteSpace=wrap;html=1;fontSize=15;" vertex="1" parent="1">
                    <mxGeometry x="630" y="260" width="100" height="40" as="geometry"/>
                </mxCell>
                <mxCell id="34" value="Return Item" style="rounded=0;whiteSpace=wrap;html=1;fontSize=15;" vertex="1" parent="1">
                    <mxGeometry x="725" y="260" width="95" height="40" as="geometry"/>
                </mxCell>
                <mxCell id="35" value="" style="rounded=0;whiteSpace=wrap;html=1;fontSize=15;verticalAlign=middle;" vertex="1" parent="1">
                    <mxGeometry x="260" y="738" width="360" height="62" as="geometry"/>
                </mxCell>
                <UserObject label="Is Selectie null?" placeholders="1" name="Variable" id="37">
                    <mxCell style="text;html=1;strokeColor=none;fillColor=none;align=center;verticalAlign=middle;whiteSpace=wrap;overflow=hidden;fontSize=15;" vertex="1" parent="1">
                        <mxGeometry x="398.26" y="750" width="131.74" height="20" as="geometry"/>
                    </mxCell>
                </UserObject>
                <UserObject label="Ja" placeholders="1" name="Variable" id="38">
                    <mxCell style="text;html=1;strokeColor=none;fillColor=none;align=center;verticalAlign=middle;whiteSpace=wrap;overflow=hidden;fontSize=15;" vertex="1" parent="1">
                        <mxGeometry x="530" y="770" width="80" height="20" as="geometry"/>
                    </mxCell>
                </UserObject>
                <UserObject label="Nee" placeholders="1" name="Variable" id="41">
                    <mxCell style="text;html=1;strokeColor=none;fillColor=none;align=center;verticalAlign=middle;whiteSpace=wrap;overflow=hidden;fontSize=15;" vertex="1" parent="1">
                        <mxGeometry x="270" y="770" width="80" height="20" as="geometry"/>
                    </mxCell>
                </UserObject>
                <mxCell id="42" value="Start betaling" style="rounded=0;whiteSpace=wrap;html=1;fontSize=15;align=left;verticalAlign=middle;" vertex="1" parent="1">
                    <mxGeometry x="260" y="800" width="210" height="40" as="geometry"/>
                </mxCell>
                <mxCell id="39" value="Print(Selectie bestaat niet of is niet meer op voorraad)" style="rounded=0;whiteSpace=wrap;html=1;fontSize=15;align=left;verticalAlign=middle;" vertex="1" parent="1">
                    <mxGeometry x="470" y="800" width="150" height="190" as="geometry"/>
                </mxCell>
                <mxCell id="43" value="" style="rounded=0;whiteSpace=wrap;html=1;fontSize=15;verticalAlign=middle;" vertex="1" parent="1">
                    <mxGeometry x="260" y="840" width="210" height="60" as="geometry"/>
                </mxCell>
                <UserObject label="Betaling gelukt?" placeholders="1" name="Variable" id="47">
                    <mxCell style="text;html=1;strokeColor=none;fillColor=none;align=center;verticalAlign=middle;whiteSpace=wrap;overflow=hidden;fontSize=15;" vertex="1" parent="1">
                        <mxGeometry x="320" y="840" width="90" height="50" as="geometry"/>
                    </mxCell>
                </UserObject>
                <mxCell id="48" value="Nee" style="text;html=1;strokeColor=none;fillColor=none;align=center;verticalAlign=middle;whiteSpace=wrap;rounded=0;fontSize=15;" vertex="1" parent="1">
                    <mxGeometry x="257.5" y="870" width="60" height="30" as="geometry"/>
                </mxCell>
                <mxCell id="49" value="Print(Betaling mislukt. Probeer opnieuw)" style="rounded=0;whiteSpace=wrap;html=1;fontSize=15;verticalAlign=middle;" vertex="1" parent="1">
                    <mxGeometry x="260" y="900" width="110" height="90" as="geometry"/>
                </mxCell>
                <mxCell id="50" value="Drop(Selectie)" style="rounded=0;whiteSpace=wrap;html=1;fontSize=15;align=left;verticalAlign=middle;" vertex="1" parent="1">
                    <mxGeometry x="370" y="900" width="100" height="90" as="geometry"/>
                </mxCell>
                <mxCell id="52" value="" style="endArrow=none;html=1;fontSize=15;entryX=1;entryY=0;entryDx=0;entryDy=0;exitX=1;exitY=0;exitDx=0;exitDy=0;verticalAlign=middle;" edge="1" parent="1" source="42" target="35">
                    <mxGeometry width="50" height="50" relative="1" as="geometry">
                        <mxPoint x="600" y="840" as="sourcePoint"/>
                        <mxPoint x="650" y="790" as="targetPoint"/>
                    </mxGeometry>
                </mxCell>
                <mxCell id="53" value="" style="endArrow=none;html=1;fontSize=15;entryX=0;entryY=0;entryDx=0;entryDy=0;exitX=1;exitY=0;exitDx=0;exitDy=0;verticalAlign=middle;" edge="1" parent="1" source="42" target="35">
                    <mxGeometry width="50" height="50" relative="1" as="geometry">
                        <mxPoint x="170" y="820" as="sourcePoint"/>
                        <mxPoint x="220" y="770" as="targetPoint"/>
                    </mxGeometry>
                </mxCell>
                <mxCell id="54" value="" style="endArrow=none;html=1;fontSize=15;entryX=1;entryY=0;entryDx=0;entryDy=0;exitX=0;exitY=0;exitDx=0;exitDy=0;verticalAlign=middle;" edge="1" parent="1" source="50" target="43">
                    <mxGeometry width="50" height="50" relative="1" as="geometry">
                        <mxPoint x="600" y="840" as="sourcePoint"/>
                        <mxPoint x="650" y="790" as="targetPoint"/>
                    </mxGeometry>
                </mxCell>
                <mxCell id="55" value="" style="endArrow=none;html=1;fontSize=15;entryX=0;entryY=0;entryDx=0;entryDy=0;exitX=1;exitY=0;exitDx=0;exitDy=0;verticalAlign=middle;" edge="1" parent="1" source="49" target="43">
                    <mxGeometry width="50" height="50" relative="1" as="geometry">
                        <mxPoint x="130" y="910" as="sourcePoint"/>
                        <mxPoint x="180" y="860" as="targetPoint"/>
                    </mxGeometry>
                </mxCell>
                <UserObject label="Ja" placeholders="1" name="Variable" id="58">
                    <mxCell style="text;html=1;strokeColor=none;fillColor=none;align=center;verticalAlign=middle;whiteSpace=wrap;overflow=hidden;fontSize=15;" vertex="1" parent="1">
                        <mxGeometry x="395" y="875" width="80" height="20" as="geometry"/>
                    </mxCell>
                </UserObject>
                <UserObject label="Zolang True" placeholders="1" name="Variable" id="65">
                    <mxCell style="text;html=1;strokeColor=none;fillColor=none;align=center;verticalAlign=middle;whiteSpace=wrap;overflow=hidden;fontSize=15;" vertex="1" parent="1">
                        <mxGeometry x="220" y="430" width="110" height="20" as="geometry"/>
                    </mxCell>
                </UserObject>
            </root>
        </mxGraphModel>
    </diagram>
</mxfile>